<svg width="128" height="137" viewBox="0 0 128 137" fill="none" xmlns="http://www.w3.org/2000/svg">
<g clip-path="url(#clip0_806_984)">
<mask id="mask0_806_984" style="mask-type:luminance" maskUnits="userSpaceOnUse" x="0" y="0" width="128" height="137">
<path d="M128 0H0V137H128V0Z" fill="white"/>
</mask>
<g mask="url(#mask0_806_984)">
<path d="M127.013 101.531C126.876 99.6711 126.28 97.823 125.273 96.1598L102.839 59.1501L125.839 36.1507C128.218 33.772 128.218 29.891 125.839 27.5123L116.682 18.3553C115.49 17.1629 113.922 16.5667 112.366 16.5667C110.81 16.5667 109.236 17.1629 108.049 18.3553L89.4134 36.9914L73.2329 10.3017C71.3074 7.13012 68.5948 4.54875 65.4351 2.76023C62.2755 0.98957 58.6746 0 54.9665 0H54.43C54.2451 0 54.0782 3.46452e-07 53.8934 0.0178856L32.7529 1.0731L11.6017 2.14023C9.49723 2.22965 7.51199 2.8735 5.78909 3.94065C4.0662 5.00778 2.61755 6.50416 1.57426 8.33435C0.536937 10.1824 0.0183296 12.1974 0.000473369 14.2245V25.7899C-0.0174103 27.8168 0.471434 29.8499 1.46703 31.6979L26.8747 78.7055L52.2824 125.695C54.1425 129.158 56.8788 131.955 60.1279 133.892C63.377 135.83 67.1507 136.915 71.0734 136.915C71.9438 136.915 72.8142 136.855 73.6846 136.748C74.555 136.64 75.4075 136.485 76.2659 136.277L97.0249 131.09L117.795 125.904C119.684 125.433 121.395 124.532 122.814 123.31C124.233 122.076 125.366 120.52 126.111 118.702C126.856 116.884 127.166 114.976 127.011 113.116L127.013 101.531ZM91.011 44.0189L112.359 22.6708L121.516 31.8279L75.7371 77.6069L48.266 50.1358L57.423 40.9788L75.7371 59.2928L91.0171 44.0128L91.011 44.0189ZM105.677 103.373C106.487 103.188 107.31 103.695 107.507 104.518C107.704 105.341 107.185 106.151 106.38 106.348L80.4351 112.453C80.3159 112.483 80.1907 112.5 80.0834 112.5C79.3799 112.5 78.754 112.029 78.587 111.326C78.4022 110.503 78.909 109.681 79.7317 109.478L105.677 103.373ZM20.562 58.8991C20.562 59.6801 19.5247 59.9543 19.1253 59.2627L9.14546 41.8018C8.62681 40.8837 8.35257 39.8344 8.35257 38.7792V37.1636C8.35257 36.3827 9.38989 36.1084 9.77144 36.7821L19.7512 54.2552C20.2878 55.1733 20.562 56.2106 20.562 57.2778V58.8991ZM124.001 106.258C123.393 107.724 122.493 108.976 121.313 109.996C120.138 111.003 118.761 111.719 117.223 112.1L75.6944 122.479C74.9492 122.664 74.1682 122.813 73.4051 122.908C72.6241 122.998 71.8492 123.046 71.0682 123.046C67.6343 123.046 64.2481 122.128 61.3032 120.357C58.3581 118.604 55.9318 116.071 54.2983 113.048L3.4814 19.051C2.6885 17.5726 2.27716 15.9093 2.28907 14.246C2.30696 12.5828 2.74812 10.9313 3.57081 9.4708C4.39351 8.00424 5.56796 6.77024 6.98684 5.88186C8.39379 5.01146 10.0392 4.51068 11.7204 4.4153L54.9538 2.2811C58.2029 2.2811 61.44 3.1336 64.3076 4.75517C67.1751 6.37078 69.5716 8.6898 71.2648 11.4679L87.7306 38.6475L86.6158 39.7623L69.947 12.2607C68.4029 9.70908 66.1912 7.57488 63.5502 6.07847C60.9091 4.59999 57.9343 3.80707 54.9416 3.80707L54.0593 3.83688L11.7859 5.94132C10.3492 6.01882 8.97806 6.4421 7.78566 7.17536C6.58142 7.92056 5.58583 8.96388 4.88837 10.2099C4.1849 11.4439 3.80336 12.8509 3.80336 14.2518C3.78547 15.6587 4.13721 17.0596 4.81087 18.3117L55.6339 112.309C57.1303 115.099 59.3718 117.424 62.0725 119.039C65.3991 121.025 69.3516 121.865 73.197 121.388C73.9123 121.299 74.6337 121.162 75.3192 120.989L116.848 110.61C118.159 110.276 119.322 109.68 120.312 108.821C121.301 107.969 122.064 106.896 122.571 105.661C123.09 104.41 123.286 103.11 123.197 101.816C123.09 100.505 122.696 99.2647 121.993 98.1081L100.048 61.9089L101.163 60.7941L123.292 97.3153C124.115 98.6746 124.604 100.153 124.711 101.697C124.83 103.241 124.592 104.767 123.996 106.246L124.001 106.258Z" fill="url(#paint0_linear_806_984)"/>
<path d="M127.013 101.531C126.876 99.6711 126.28 97.823 125.273 96.1598L102.839 59.1501L125.839 36.1507C128.218 33.772 128.218 29.891 125.839 27.5123L116.682 18.3553C115.49 17.1629 113.922 16.5667 112.366 16.5667C110.81 16.5667 109.236 17.1629 108.049 18.3553L89.4134 36.9914L73.2329 10.3017C71.3074 7.13012 68.5948 4.54875 65.4351 2.76023C62.2755 0.98957 58.6746 0 54.9665 0H54.43C54.2451 0 54.0782 3.46452e-07 53.8934 0.0178856L32.7529 1.0731L11.6017 2.14023C9.49723 2.22965 7.51199 2.8735 5.78909 3.94065C4.0662 5.00778 2.61755 6.50416 1.57426 8.33435C0.536937 10.1824 0.0183296 12.1974 0.000473369 14.2245V25.7899C-0.0174103 27.8168 0.471434 29.8499 1.46703 31.6979L26.8747 78.7055L52.2824 125.695C54.1425 129.158 56.8788 131.955 60.1279 133.892C63.377 135.83 67.1507 136.915 71.0734 136.915C71.9438 136.915 72.8142 136.855 73.6846 136.748C74.555 136.64 75.4075 136.485 76.2659 136.277L97.0249 131.09L117.795 125.904C119.684 125.433 121.395 124.532 122.814 123.31C124.233 122.076 125.366 120.52 126.111 118.702C126.856 116.884 127.166 114.976 127.011 113.116L127.013 101.531ZM91.011 44.0189L112.359 22.6708L121.516 31.8279L75.7371 77.6069L48.266 50.1358L57.423 40.9788L75.7371 59.2928L91.0171 44.0128L91.011 44.0189ZM105.677 103.373C106.487 103.188 107.31 103.695 107.507 104.518C107.704 105.341 107.185 106.151 106.38 106.348L80.4351 112.453C80.3159 112.483 80.1907 112.5 80.0834 112.5C79.3799 112.5 78.754 112.029 78.587 111.326C78.4022 110.503 78.909 109.681 79.7317 109.478L105.677 103.373ZM20.562 58.8991C20.562 59.6801 19.5247 59.9543 19.1253 59.2627L9.14546 41.8018C8.62681 40.8837 8.35257 39.8344 8.35257 38.7792V37.1636C8.35257 36.3827 9.38989 36.1084 9.77144 36.7821L19.7512 54.2552C20.2878 55.1733 20.562 56.2106 20.562 57.2778V58.8991ZM124.001 106.258C123.393 107.724 122.493 108.976 121.313 109.996C120.138 111.003 118.761 111.719 117.223 112.1L75.6944 122.479C74.9492 122.664 74.1682 122.813 73.4051 122.908C72.6241 122.998 71.8492 123.046 71.0682 123.046C67.6343 123.046 64.2481 122.128 61.3032 120.357C58.3581 118.604 55.9318 116.071 54.2983 113.048L3.4814 19.051C2.6885 17.5726 2.27716 15.9093 2.28907 14.246C2.30696 12.5828 2.74812 10.9313 3.57081 9.4708C4.39351 8.00424 5.56796 6.77024 6.98684 5.88186C8.39379 5.01146 10.0392 4.51068 11.7204 4.4153L54.9538 2.2811C58.2029 2.2811 61.44 3.1336 64.3076 4.75517C67.1751 6.37078 69.5716 8.6898 71.2648 11.4679L87.7306 38.6475L86.6158 39.7623L69.947 12.2607C68.4029 9.70908 66.1912 7.57488 63.5502 6.07847C60.9091 4.59999 57.9343 3.80707 54.9416 3.80707L54.0593 3.83688L11.7859 5.94132C10.3492 6.01882 8.97806 6.4421 7.78566 7.17536C6.58142 7.92056 5.58583 8.96388 4.88837 10.2099C4.1849 11.4439 3.80336 12.8509 3.80336 14.2518C3.78547 15.6587 4.13721 17.0596 4.81087 18.3117L55.6339 112.309C57.1303 115.099 59.3718 117.424 62.0725 119.039C65.3991 121.025 69.3516 121.865 73.197 121.388C73.9123 121.299 74.6337 121.162 75.3192 120.989L116.848 110.61C118.159 110.276 119.322 109.68 120.312 108.821C121.301 107.969 122.064 106.896 122.571 105.661C123.09 104.41 123.286 103.11 123.197 101.816C123.09 100.505 122.696 99.2647 121.993 98.1081L100.048 61.9089L101.163 60.7941L123.292 97.3153C124.115 98.6746 124.604 100.153 124.711 101.697C124.83 103.241 124.592 104.767 123.996 106.246L124.001 106.258Z" fill="url(#paint1_linear_806_984)"/>
<path d="M127.013 101.531C126.876 99.6711 126.28 97.823 125.273 96.1598L102.839 59.1501L125.839 36.1507C128.218 33.772 128.218 29.891 125.839 27.5123L116.682 18.3553C115.49 17.1629 113.922 16.5667 112.366 16.5667C110.81 16.5667 109.236 17.1629 108.049 18.3553L89.4134 36.9914L73.2329 10.3017C71.3074 7.13012 68.5948 4.54875 65.4351 2.76023C62.2755 0.98957 58.6746 0 54.9665 0H54.43C54.2451 0 54.0782 3.46452e-07 53.8934 0.0178856L32.7529 1.0731L11.6017 2.14023C9.49723 2.22965 7.51199 2.8735 5.78909 3.94065C4.0662 5.00778 2.61755 6.50416 1.57426 8.33435C0.536937 10.1824 0.0183296 12.1974 0.000473369 14.2245V25.7899C-0.0174103 27.8168 0.471434 29.8499 1.46703 31.6979L26.8747 78.7055L52.2824 125.695C54.1425 129.158 56.8788 131.955 60.1279 133.892C63.377 135.83 67.1507 136.915 71.0734 136.915C71.9438 136.915 72.8142 136.855 73.6846 136.748C74.555 136.64 75.4075 136.485 76.2659 136.277L97.0249 131.09L117.795 125.904C119.684 125.433 121.395 124.532 122.814 123.31C124.233 122.076 125.366 120.52 126.111 118.702C126.856 116.884 127.166 114.976 127.011 113.116L127.013 101.531ZM91.011 44.0189L112.359 22.6708L121.516 31.8279L75.7371 77.6069L48.266 50.1358L57.423 40.9788L75.7371 59.2928L91.0171 44.0128L91.011 44.0189ZM105.677 103.373C106.487 103.188 107.31 103.695 107.507 104.518C107.704 105.341 107.185 106.151 106.38 106.348L80.4351 112.453C80.3159 112.483 80.1907 112.5 80.0834 112.5C79.3799 112.5 78.754 112.029 78.587 111.326C78.4022 110.503 78.909 109.681 79.7317 109.478L105.677 103.373ZM20.562 58.8991C20.562 59.6801 19.5247 59.9543 19.1253 59.2627L9.14546 41.8018C8.62681 40.8837 8.35257 39.8344 8.35257 38.7792V37.1636C8.35257 36.3827 9.38989 36.1084 9.77144 36.7821L19.7512 54.2552C20.2878 55.1733 20.562 56.2106 20.562 57.2778V58.8991ZM124.001 106.258C123.393 107.724 122.493 108.976 121.313 109.996C120.138 111.003 118.761 111.719 117.223 112.1L75.6944 122.479C74.9492 122.664 74.1682 122.813 73.4051 122.908C72.6241 122.998 71.8492 123.046 71.0682 123.046C67.6343 123.046 64.2481 122.128 61.3032 120.357C58.3581 118.604 55.9318 116.071 54.2983 113.048L3.4814 19.051C2.6885 17.5726 2.27716 15.9093 2.28907 14.246C2.30696 12.5828 2.74812 10.9313 3.57081 9.4708C4.39351 8.00424 5.56796 6.77024 6.98684 5.88186C8.39379 5.01146 10.0392 4.51068 11.7204 4.4153L54.9538 2.2811C58.2029 2.2811 61.44 3.1336 64.3076 4.75517C67.1751 6.37078 69.5716 8.6898 71.2648 11.4679L87.7306 38.6475L86.6158 39.7623L69.947 12.2607C68.4029 9.70908 66.1912 7.57488 63.5502 6.07847C60.9091 4.59999 57.9343 3.80707 54.9416 3.80707L54.0593 3.83688L11.7859 5.94132C10.3492 6.01882 8.97806 6.4421 7.78566 7.17536C6.58142 7.92056 5.58583 8.96388 4.88837 10.2099C4.1849 11.4439 3.80336 12.8509 3.80336 14.2518C3.78547 15.6587 4.13721 17.0596 4.81087 18.3117L55.6339 112.309C57.1303 115.099 59.3718 117.424 62.0725 119.039C65.3991 121.025 69.3516 121.865 73.197 121.388C73.9123 121.299 74.6337 121.162 75.3192 120.989L116.848 110.61C118.159 110.276 119.322 109.68 120.312 108.821C121.301 107.969 122.064 106.896 122.571 105.661C123.09 104.41 123.286 103.11 123.197 101.816C123.09 100.505 122.696 99.2647 121.993 98.1081L100.048 61.9089L101.163 60.7941L123.292 97.3153C124.115 98.6746 124.604 100.153 124.711 101.697C124.83 103.241 124.592 104.767 123.996 106.246L124.001 106.258Z" fill="url(#paint2_linear_806_984)"/>
</g>
</g>
<defs>
<linearGradient id="paint0_linear_806_984" x1="63.8114" y1="0" x2="63.8114" y2="136.915" gradientUnits="userSpaceOnUse">
<stop stop-color="#FFD2B8"/>
<stop offset="1" stop-color="#C44900"/>
</linearGradient>
<linearGradient id="paint1_linear_806_984" x1="63.8113" y1="0" x2="63.8113" y2="136.915" gradientUnits="userSpaceOnUse">
<stop stop-color="#2EFB46"/>
<stop offset="1" stop-color="#49AA3B"/>
</linearGradient>
<linearGradient id="paint2_linear_806_984" x1="63.8112" y1="0" x2="63.8112" y2="136.915" gradientUnits="userSpaceOnUse">
<stop stop-color="#F0CF3B"/>
<stop offset="1" stop-color="#E6B800"/>
</linearGradient>
<clipPath id="clip0_806_984">
<rect width="128" height="137" fill="white"/>
</clipPath>
</defs>
</svg>
