<svg width="97" height="100" viewBox="0 0 97 100" fill="none" xmlns="http://www.w3.org/2000/svg">
<g clip-path="url(#clip0_806_991)">
<mask id="mask0_806_991" style="mask-type:luminance" maskUnits="userSpaceOnUse" x="0" y="0" width="97" height="100">
<path d="M97 0H0V100H97V0Z" fill="white"/>
</mask>
<g mask="url(#mask0_806_991)">
<path d="M77.6187 42.6985C64.3727 42.6985 53.5909 31.9203 53.5909 18.6708C53.5909 11.1389 57.0837 4.41056 62.5263 0H10.5711C4.71412 0.0035713 0 4.7534 0 10.5746V89.4289C0 95.2502 4.71412 100 10.5711 100H85.7112C91.5682 100 96.2823 95.2502 96.2823 89.4289V33.7702C91.8753 39.2093 85.147 42.6985 77.6187 42.6985ZM21.5278 25.4669H46.2055C47.9804 25.4669 49.4197 26.9062 49.4197 28.6811C49.4197 30.4561 47.9804 31.8953 46.2055 31.8953H21.5278C19.7529 31.8953 18.3136 30.4561 18.3136 28.6811C18.3136 26.9062 19.7529 25.4669 21.5278 25.4669ZM39.7986 74.5295H21.5064C19.7314 74.5295 18.2922 73.0902 18.2922 71.3153C18.2922 69.5404 19.7314 68.1011 21.5064 68.1011H39.7986C41.5735 68.1011 43.0128 69.5404 43.0128 71.3153C43.0128 73.0902 41.5735 74.5295 39.7986 74.5295ZM67.3154 53.1802H21.4957C19.7207 53.1802 18.2815 51.741 18.2815 49.9661C18.2815 48.1911 19.7207 46.7519 21.4957 46.7519H67.3154C69.0904 46.7519 70.5296 48.1911 70.5296 49.9661C70.5296 51.741 69.0904 53.1802 67.3154 53.1802Z" fill="url(#paint0_linear_806_991)"/>
<path d="M77.6187 42.6985C64.3727 42.6985 53.5909 31.9203 53.5909 18.6708C53.5909 11.1389 57.0837 4.41056 62.5263 0H10.5711C4.71412 0.0035713 0 4.7534 0 10.5746V89.4289C0 95.2502 4.71412 100 10.5711 100H85.7112C91.5682 100 96.2823 95.2502 96.2823 89.4289V33.7702C91.8753 39.2093 85.147 42.6985 77.6187 42.6985ZM21.5278 25.4669H46.2055C47.9804 25.4669 49.4197 26.9062 49.4197 28.6811C49.4197 30.4561 47.9804 31.8953 46.2055 31.8953H21.5278C19.7529 31.8953 18.3136 30.4561 18.3136 28.6811C18.3136 26.9062 19.7529 25.4669 21.5278 25.4669ZM39.7986 74.5295H21.5064C19.7314 74.5295 18.2922 73.0902 18.2922 71.3153C18.2922 69.5404 19.7314 68.1011 21.5064 68.1011H39.7986C41.5735 68.1011 43.0128 69.5404 43.0128 71.3153C43.0128 73.0902 41.5735 74.5295 39.7986 74.5295ZM67.3154 53.1802H21.4957C19.7207 53.1802 18.2815 51.741 18.2815 49.9661C18.2815 48.1911 19.7207 46.7519 21.4957 46.7519H67.3154C69.0904 46.7519 70.5296 48.1911 70.5296 49.9661C70.5296 51.741 69.0904 53.1802 67.3154 53.1802Z" fill="url(#paint1_linear_806_991)"/>
<path d="M77.6187 42.6985C64.3727 42.6985 53.5909 31.9203 53.5909 18.6708C53.5909 11.1389 57.0837 4.41056 62.5263 0H10.5711C4.71412 0.0035713 0 4.7534 0 10.5746V89.4289C0 95.2502 4.71412 100 10.5711 100H85.7112C91.5682 100 96.2823 95.2502 96.2823 89.4289V33.7702C91.8753 39.2093 85.147 42.6985 77.6187 42.6985ZM21.5278 25.4669H46.2055C47.9804 25.4669 49.4197 26.9062 49.4197 28.6811C49.4197 30.4561 47.9804 31.8953 46.2055 31.8953H21.5278C19.7529 31.8953 18.3136 30.4561 18.3136 28.6811C18.3136 26.9062 19.7529 25.4669 21.5278 25.4669ZM39.7986 74.5295H21.5064C19.7314 74.5295 18.2922 73.0902 18.2922 71.3153C18.2922 69.5404 19.7314 68.1011 21.5064 68.1011H39.7986C41.5735 68.1011 43.0128 69.5404 43.0128 71.3153C43.0128 73.0902 41.5735 74.5295 39.7986 74.5295ZM67.3154 53.1802H21.4957C19.7207 53.1802 18.2815 51.741 18.2815 49.9661C18.2815 48.1911 19.7207 46.7519 21.4957 46.7519H67.3154C69.0904 46.7519 70.5296 48.1911 70.5296 49.9661C70.5296 51.741 69.0904 53.1802 67.3154 53.1802Z" fill="url(#paint2_linear_806_991)"/>
<path d="M77.6239 0.00390625C67.3135 0.00390625 58.9531 8.36075 58.9531 18.6747C58.9531 28.985 67.3135 37.3454 77.6239 37.3454C87.9342 37.3454 96.2947 28.985 96.2947 18.6747C96.2947 8.36075 87.9342 0.00390625 77.6239 0.00390625ZM85.9879 17.9997L76.8739 25.3423C76.2989 25.8066 75.5882 26.053 74.8597 26.053C74.7383 26.053 74.6169 26.0458 74.4954 26.0315C73.6419 25.9351 72.8598 25.4994 72.3312 24.8209L68.7492 20.2532C67.6528 18.8568 67.8992 16.8354 69.2956 15.7426C70.6956 14.6498 72.7169 14.8927 73.8062 16.289L75.3775 18.2925L81.9559 12.9963C83.3344 11.8821 85.3629 12.0999 86.4736 13.482C87.5878 14.8605 87.37 16.8854 85.9879 17.9997Z" fill="url(#paint3_linear_806_991)"/>
<path d="M77.6239 0.00390625C67.3135 0.00390625 58.9531 8.36075 58.9531 18.6747C58.9531 28.985 67.3135 37.3454 77.6239 37.3454C87.9342 37.3454 96.2947 28.985 96.2947 18.6747C96.2947 8.36075 87.9342 0.00390625 77.6239 0.00390625ZM85.9879 17.9997L76.8739 25.3423C76.2989 25.8066 75.5882 26.053 74.8597 26.053C74.7383 26.053 74.6169 26.0458 74.4954 26.0315C73.6419 25.9351 72.8598 25.4994 72.3312 24.8209L68.7492 20.2532C67.6528 18.8568 67.8992 16.8354 69.2956 15.7426C70.6956 14.6498 72.7169 14.8927 73.8062 16.289L75.3775 18.2925L81.9559 12.9963C83.3344 11.8821 85.3629 12.0999 86.4736 13.482C87.5878 14.8605 87.37 16.8854 85.9879 17.9997Z" fill="url(#paint4_linear_806_991)"/>
<path d="M77.6239 0.00390625C67.3135 0.00390625 58.9531 8.36075 58.9531 18.6747C58.9531 28.985 67.3135 37.3454 77.6239 37.3454C87.9342 37.3454 96.2947 28.985 96.2947 18.6747C96.2947 8.36075 87.9342 0.00390625 77.6239 0.00390625ZM85.9879 17.9997L76.8739 25.3423C76.2989 25.8066 75.5882 26.053 74.8597 26.053C74.7383 26.053 74.6169 26.0458 74.4954 26.0315C73.6419 25.9351 72.8598 25.4994 72.3312 24.8209L68.7492 20.2532C67.6528 18.8568 67.8992 16.8354 69.2956 15.7426C70.6956 14.6498 72.7169 14.8927 73.8062 16.289L75.3775 18.2925L81.9559 12.9963C83.3344 11.8821 85.3629 12.0999 86.4736 13.482C87.5878 14.8605 87.37 16.8854 85.9879 17.9997Z" fill="url(#paint5_linear_806_991)"/>
</g>
</g>
<defs>
<linearGradient id="paint0_linear_806_991" x1="48.1411" y1="0" x2="48.1411" y2="100" gradientUnits="userSpaceOnUse">
<stop stop-color="#FFD2B8"/>
<stop offset="1" stop-color="#C44900"/>
</linearGradient>
<linearGradient id="paint1_linear_806_991" x1="48.1409" y1="0" x2="48.1409" y2="100" gradientUnits="userSpaceOnUse">
<stop stop-color="#2EFB46"/>
<stop offset="1" stop-color="#49AA3B"/>
</linearGradient>
<linearGradient id="paint2_linear_806_991" x1="48.1408" y1="0" x2="48.1408" y2="100" gradientUnits="userSpaceOnUse">
<stop stop-color="#F0CF3B"/>
<stop offset="1" stop-color="#E6B800"/>
</linearGradient>
<linearGradient id="paint3_linear_806_991" x1="77.6239" y1="0.00390625" x2="77.6239" y2="37.3454" gradientUnits="userSpaceOnUse">
<stop stop-color="#FFD2B8"/>
<stop offset="1" stop-color="#C44900"/>
</linearGradient>
<linearGradient id="paint4_linear_806_991" x1="77.6238" y1="0.00390625" x2="77.6238" y2="37.3454" gradientUnits="userSpaceOnUse">
<stop stop-color="#2EFB46"/>
<stop offset="1" stop-color="#49AA3B"/>
</linearGradient>
<linearGradient id="paint5_linear_806_991" x1="77.6238" y1="0.00390625" x2="77.6238" y2="37.3454" gradientUnits="userSpaceOnUse">
<stop stop-color="#F0CF3B"/>
<stop offset="1" stop-color="#E6B800"/>
</linearGradient>
<clipPath id="clip0_806_991">
<rect width="97" height="100" fill="white"/>
</clipPath>
</defs>
</svg>
