<svg width="137" height="124" viewBox="0 0 137 124" fill="none" xmlns="http://www.w3.org/2000/svg">
<g clip-path="url(#clip0_806_1000)">
<mask id="mask0_806_1000" style="mask-type:luminance" maskUnits="userSpaceOnUse" x="0" y="0" width="137" height="124">
<path d="M137 0H0V124H137V0Z" fill="white"/>
</mask>
<g mask="url(#mask0_806_1000)">
<path d="M114.989 18.1755V2.20606C114.989 1.35436 114.351 0.502651 113.499 0.0767982C112.647 -0.136128 111.583 0.0767982 111.157 0.928503C103.917 12.4265 85.3926 22.0082 61.119 17.5367C60.9061 17.5367 58.7769 17.1109 57.0734 18.8143C55.583 20.0919 54.9442 22.0082 55.1571 24.5633V33.2933C55.1571 35.8484 55.7959 37.7647 57.0734 39.0423C59.2027 40.9586 61.332 40.1069 63.2483 39.894V40.1069C63.2483 41.1716 65.8034 44.1525 68.3585 53.3084C68.5715 58.4186 71.3395 60.122 71.5524 60.3349C74.5334 62.0383 81.7729 62.2513 84.7539 59.0574C84.9668 58.8444 84.9668 58.8444 85.1797 58.6315C87.7348 54.5859 83.9022 50.1145 81.347 48.1981C78.3661 45.643 77.5144 41.3845 77.3014 39.0423C89.0124 39.0423 104.982 46.7076 111.37 56.7152C111.795 57.354 112.434 57.7798 113.073 57.7798C113.286 57.7798 113.499 57.7798 113.712 57.7798C114.564 57.5669 115.202 56.7152 115.202 55.6505V39.6811C120.313 38.6164 124.145 34.145 124.145 28.8218C124.145 23.4987 120.1 19.2402 114.989 18.1755Z" fill="url(#paint0_linear_806_1000)"/>
<path d="M114.989 18.1755V2.20606C114.989 1.35436 114.351 0.502651 113.499 0.0767982C112.647 -0.136128 111.583 0.0767982 111.157 0.928503C103.917 12.4265 85.3926 22.0082 61.119 17.5367C60.9061 17.5367 58.7769 17.1109 57.0734 18.8143C55.583 20.0919 54.9442 22.0082 55.1571 24.5633V33.2933C55.1571 35.8484 55.7959 37.7647 57.0734 39.0423C59.2027 40.9586 61.332 40.1069 63.2483 39.894V40.1069C63.2483 41.1716 65.8034 44.1525 68.3585 53.3084C68.5715 58.4186 71.3395 60.122 71.5524 60.3349C74.5334 62.0383 81.7729 62.2513 84.7539 59.0574C84.9668 58.8444 84.9668 58.8444 85.1797 58.6315C87.7348 54.5859 83.9022 50.1145 81.347 48.1981C78.3661 45.643 77.5144 41.3845 77.3014 39.0423C89.0124 39.0423 104.982 46.7076 111.37 56.7152C111.795 57.354 112.434 57.7798 113.073 57.7798C113.286 57.7798 113.499 57.7798 113.712 57.7798C114.564 57.5669 115.202 56.7152 115.202 55.6505V39.6811C120.313 38.6164 124.145 34.145 124.145 28.8218C124.145 23.4987 120.1 19.2402 114.989 18.1755Z" fill="url(#paint1_linear_806_1000)"/>
<path d="M114.989 18.1755V2.20606C114.989 1.35436 114.351 0.502651 113.499 0.0767982C112.647 -0.136128 111.583 0.0767982 111.157 0.928503C103.917 12.4265 85.3926 22.0082 61.119 17.5367C60.9061 17.5367 58.7769 17.1109 57.0734 18.8143C55.583 20.0919 54.9442 22.0082 55.1571 24.5633V33.2933C55.1571 35.8484 55.7959 37.7647 57.0734 39.0423C59.2027 40.9586 61.332 40.1069 63.2483 39.894V40.1069C63.2483 41.1716 65.8034 44.1525 68.3585 53.3084C68.5715 58.4186 71.3395 60.122 71.5524 60.3349C74.5334 62.0383 81.7729 62.2513 84.7539 59.0574C84.9668 58.8444 84.9668 58.8444 85.1797 58.6315C87.7348 54.5859 83.9022 50.1145 81.347 48.1981C78.3661 45.643 77.5144 41.3845 77.3014 39.0423C89.0124 39.0423 104.982 46.7076 111.37 56.7152C111.795 57.354 112.434 57.7798 113.073 57.7798C113.286 57.7798 113.499 57.7798 113.712 57.7798C114.564 57.5669 115.202 56.7152 115.202 55.6505V39.6811C120.313 38.6164 124.145 34.145 124.145 28.8218C124.145 23.4987 120.1 19.2402 114.989 18.1755Z" fill="url(#paint2_linear_806_1000)"/>
<path d="M128.619 19.664L132.238 18.1735C133.303 17.7476 133.942 16.4701 133.303 15.4054C132.877 14.3408 131.6 13.702 130.535 14.3408L126.702 15.8313C125.638 16.2571 124.999 17.5347 125.638 18.5993C126.276 19.451 127.341 20.0898 128.619 19.664Z" fill="url(#paint3_linear_806_1000)"/>
<path d="M128.619 19.664L132.238 18.1735C133.303 17.7476 133.942 16.4701 133.303 15.4054C132.877 14.3408 131.6 13.702 130.535 14.3408L126.702 15.8313C125.638 16.2571 124.999 17.5347 125.638 18.5993C126.276 19.451 127.341 20.0898 128.619 19.664Z" fill="url(#paint4_linear_806_1000)"/>
<path d="M128.619 19.664L132.238 18.1735C133.303 17.7476 133.942 16.4701 133.303 15.4054C132.877 14.3408 131.6 13.702 130.535 14.3408L126.702 15.8313C125.638 16.2571 124.999 17.5347 125.638 18.5993C126.276 19.451 127.341 20.0898 128.619 19.664Z" fill="url(#paint5_linear_806_1000)"/>
<path d="M134.151 26.9023H130.106C129.041 26.9023 127.977 27.754 127.977 29.0316C127.977 30.0962 129.041 31.1609 130.106 31.1609H134.151C135.429 31.1609 136.281 30.0962 136.281 29.0316C136.281 27.967 135.429 26.9023 134.151 26.9023Z" fill="url(#paint6_linear_806_1000)"/>
<path d="M134.151 26.9023H130.106C129.041 26.9023 127.977 27.754 127.977 29.0316C127.977 30.0962 129.041 31.1609 130.106 31.1609H134.151C135.429 31.1609 136.281 30.0962 136.281 29.0316C136.281 27.967 135.429 26.9023 134.151 26.9023Z" fill="url(#paint7_linear_806_1000)"/>
<path d="M134.151 26.9023H130.106C129.041 26.9023 127.977 27.754 127.977 29.0316C127.977 30.0962 129.041 31.1609 130.106 31.1609H134.151C135.429 31.1609 136.281 30.0962 136.281 29.0316C136.281 27.967 135.429 26.9023 134.151 26.9023Z" fill="url(#paint8_linear_806_1000)"/>
<path d="M132.442 39.892L128.822 38.4015C127.757 37.9756 126.48 38.4015 126.054 39.4661C125.628 40.5307 126.054 41.8083 127.118 42.2341L130.951 43.7246C132.016 44.1505 133.293 43.7246 133.719 42.66C133.932 41.5954 133.506 40.3178 132.442 39.892Z" fill="url(#paint9_linear_806_1000)"/>
<path d="M132.442 39.892L128.822 38.4015C127.757 37.9756 126.48 38.4015 126.054 39.4661C125.628 40.5307 126.054 41.8083 127.118 42.2341L130.951 43.7246C132.016 44.1505 133.293 43.7246 133.719 42.66C133.932 41.5954 133.506 40.3178 132.442 39.892Z" fill="url(#paint10_linear_806_1000)"/>
<path d="M132.442 39.892L128.822 38.4015C127.757 37.9756 126.48 38.4015 126.054 39.4661C125.628 40.5307 126.054 41.8083 127.118 42.2341L130.951 43.7246C132.016 44.1505 133.293 43.7246 133.719 42.66C133.932 41.5954 133.506 40.3178 132.442 39.892Z" fill="url(#paint11_linear_806_1000)"/>
<path d="M36.2031 68.8542C36.2031 77.5842 43.2297 84.6107 51.9597 84.6107C60.6896 84.6107 67.7162 77.5842 67.7162 68.8542C67.7162 60.1242 60.6896 53.0977 51.9597 53.0977C43.2297 53.0977 36.2031 60.1242 36.2031 68.8542ZM63.8835 68.8542C63.8835 69.493 63.4577 70.3447 62.8189 70.5576L48.3399 79.5005C47.9141 79.7134 47.7011 79.9264 47.2753 79.9264C46.8494 79.9264 46.6365 79.9264 46.2107 79.7134C45.5719 79.2876 45.146 78.6488 45.146 77.7971V59.6984C45.146 58.8467 45.5719 58.2079 46.2107 57.782C46.8494 57.3562 47.7011 57.3562 48.3399 57.782L62.8189 66.7249C63.4577 67.3637 63.8835 68.0025 63.8835 68.8542Z" fill="url(#paint12_linear_806_1000)"/>
<path d="M36.2031 68.8542C36.2031 77.5842 43.2297 84.6107 51.9597 84.6107C60.6896 84.6107 67.7162 77.5842 67.7162 68.8542C67.7162 60.1242 60.6896 53.0977 51.9597 53.0977C43.2297 53.0977 36.2031 60.1242 36.2031 68.8542ZM63.8835 68.8542C63.8835 69.493 63.4577 70.3447 62.8189 70.5576L48.3399 79.5005C47.9141 79.7134 47.7011 79.9264 47.2753 79.9264C46.8494 79.9264 46.6365 79.9264 46.2107 79.7134C45.5719 79.2876 45.146 78.6488 45.146 77.7971V59.6984C45.146 58.8467 45.5719 58.2079 46.2107 57.782C46.8494 57.3562 47.7011 57.3562 48.3399 57.782L62.8189 66.7249C63.4577 67.3637 63.8835 68.0025 63.8835 68.8542Z" fill="url(#paint13_linear_806_1000)"/>
<path d="M36.2031 68.8542C36.2031 77.5842 43.2297 84.6107 51.9597 84.6107C60.6896 84.6107 67.7162 77.5842 67.7162 68.8542C67.7162 60.1242 60.6896 53.0977 51.9597 53.0977C43.2297 53.0977 36.2031 60.1242 36.2031 68.8542ZM63.8835 68.8542C63.8835 69.493 63.4577 70.3447 62.8189 70.5576L48.3399 79.5005C47.9141 79.7134 47.7011 79.9264 47.2753 79.9264C46.8494 79.9264 46.6365 79.9264 46.2107 79.7134C45.5719 79.2876 45.146 78.6488 45.146 77.7971V59.6984C45.146 58.8467 45.5719 58.2079 46.2107 57.782C46.8494 57.3562 47.7011 57.3562 48.3399 57.782L62.8189 66.7249C63.4577 67.3637 63.8835 68.0025 63.8835 68.8542Z" fill="url(#paint14_linear_806_1000)"/>
<path d="M49.4062 63.7461V73.9666L57.7104 68.8563L49.4062 63.7461Z" fill="url(#paint15_linear_806_1000)"/>
<path d="M49.4062 63.7461V73.9666L57.7104 68.8563L49.4062 63.7461Z" fill="url(#paint16_linear_806_1000)"/>
<path d="M49.4062 63.7461V73.9666L57.7104 68.8563L49.4062 63.7461Z" fill="url(#paint17_linear_806_1000)"/>
<path d="M83.8929 45.2185C94.1134 52.8838 91.7712 66.0852 77.0793 66.0852C75.8017 66.0852 73.6725 65.8723 71.5432 65.2335C71.7561 66.2982 71.9691 67.5757 71.9691 68.8533C71.9691 79.9255 63.0262 88.8683 51.954 88.8683C40.8818 88.8683 31.9389 79.9255 31.9389 68.8533C31.9389 57.7811 40.8818 48.8382 51.954 48.8382C56.2125 48.8382 60.2581 50.3287 63.6649 52.6709C62.3874 48.8382 61.3228 46.2831 60.471 44.7926H60.2581C57.9159 44.7926 55.9996 43.9409 54.2962 42.4504C52.8057 41.1729 51.3152 39.0436 50.8894 35.2109H2.12926C1.06463 35.2109 0 36.0626 0 37.3402V102.283H103.695V54.8002C98.5848 49.9029 90.4936 45.8573 83.0412 44.1538C83.4671 44.5797 83.68 45.0055 83.8929 45.2185Z" fill="url(#paint18_linear_806_1000)"/>
<path d="M83.8929 45.2185C94.1134 52.8838 91.7712 66.0852 77.0793 66.0852C75.8017 66.0852 73.6725 65.8723 71.5432 65.2335C71.7561 66.2982 71.9691 67.5757 71.9691 68.8533C71.9691 79.9255 63.0262 88.8683 51.954 88.8683C40.8818 88.8683 31.9389 79.9255 31.9389 68.8533C31.9389 57.7811 40.8818 48.8382 51.954 48.8382C56.2125 48.8382 60.2581 50.3287 63.6649 52.6709C62.3874 48.8382 61.3228 46.2831 60.471 44.7926H60.2581C57.9159 44.7926 55.9996 43.9409 54.2962 42.4504C52.8057 41.1729 51.3152 39.0436 50.8894 35.2109H2.12926C1.06463 35.2109 0 36.0626 0 37.3402V102.283H103.695V54.8002C98.5848 49.9029 90.4936 45.8573 83.0412 44.1538C83.4671 44.5797 83.68 45.0055 83.8929 45.2185Z" fill="url(#paint19_linear_806_1000)"/>
<path d="M83.8929 45.2185C94.1134 52.8838 91.7712 66.0852 77.0793 66.0852C75.8017 66.0852 73.6725 65.8723 71.5432 65.2335C71.7561 66.2982 71.9691 67.5757 71.9691 68.8533C71.9691 79.9255 63.0262 88.8683 51.954 88.8683C40.8818 88.8683 31.9389 79.9255 31.9389 68.8533C31.9389 57.7811 40.8818 48.8382 51.954 48.8382C56.2125 48.8382 60.2581 50.3287 63.6649 52.6709C62.3874 48.8382 61.3228 46.2831 60.471 44.7926H60.2581C57.9159 44.7926 55.9996 43.9409 54.2962 42.4504C52.8057 41.1729 51.3152 39.0436 50.8894 35.2109H2.12926C1.06463 35.2109 0 36.0626 0 37.3402V102.283H103.695V54.8002C98.5848 49.9029 90.4936 45.8573 83.0412 44.1538C83.4671 44.5797 83.68 45.0055 83.8929 45.2185Z" fill="url(#paint20_linear_806_1000)"/>
<path d="M0 121.87C0 123.147 1.06463 123.999 2.12926 123.999H101.566C102.63 123.999 103.695 123.147 103.695 121.87V106.539H0V121.87ZM86.2351 113.14H88.5773C89.6419 113.14 90.7066 113.991 90.7066 115.269C90.7066 116.334 89.6419 117.398 88.5773 117.398H86.2351C85.1705 117.398 84.1059 116.334 84.1059 115.269C84.1059 114.204 85.1705 113.14 86.2351 113.14ZM15.1178 113.14H45.5662V112.927C45.5662 111.862 46.6308 110.798 47.6955 110.798C48.973 110.798 49.8247 111.862 49.8247 112.927V113.14H65.5813C66.6459 113.14 67.7105 113.991 67.7105 115.269C67.7105 116.334 66.6459 117.398 65.5813 117.398H49.8247V117.611C49.8247 118.676 48.973 119.74 47.6955 119.74C46.6308 119.74 45.5662 118.676 45.5662 117.611V117.398H15.1178C13.8402 117.398 12.9885 116.334 12.9885 115.269C12.9885 114.204 14.0531 113.14 15.1178 113.14Z" fill="url(#paint21_linear_806_1000)"/>
<path d="M0 121.87C0 123.147 1.06463 123.999 2.12926 123.999H101.566C102.63 123.999 103.695 123.147 103.695 121.87V106.539H0V121.87ZM86.2351 113.14H88.5773C89.6419 113.14 90.7066 113.991 90.7066 115.269C90.7066 116.334 89.6419 117.398 88.5773 117.398H86.2351C85.1705 117.398 84.1059 116.334 84.1059 115.269C84.1059 114.204 85.1705 113.14 86.2351 113.14ZM15.1178 113.14H45.5662V112.927C45.5662 111.862 46.6308 110.798 47.6955 110.798C48.973 110.798 49.8247 111.862 49.8247 112.927V113.14H65.5813C66.6459 113.14 67.7105 113.991 67.7105 115.269C67.7105 116.334 66.6459 117.398 65.5813 117.398H49.8247V117.611C49.8247 118.676 48.973 119.74 47.6955 119.74C46.6308 119.74 45.5662 118.676 45.5662 117.611V117.398H15.1178C13.8402 117.398 12.9885 116.334 12.9885 115.269C12.9885 114.204 14.0531 113.14 15.1178 113.14Z" fill="url(#paint22_linear_806_1000)"/>
<path d="M0 121.87C0 123.147 1.06463 123.999 2.12926 123.999H101.566C102.63 123.999 103.695 123.147 103.695 121.87V106.539H0V121.87ZM86.2351 113.14H88.5773C89.6419 113.14 90.7066 113.991 90.7066 115.269C90.7066 116.334 89.6419 117.398 88.5773 117.398H86.2351C85.1705 117.398 84.1059 116.334 84.1059 115.269C84.1059 114.204 85.1705 113.14 86.2351 113.14ZM15.1178 113.14H45.5662V112.927C45.5662 111.862 46.6308 110.798 47.6955 110.798C48.973 110.798 49.8247 111.862 49.8247 112.927V113.14H65.5813C66.6459 113.14 67.7105 113.991 67.7105 115.269C67.7105 116.334 66.6459 117.398 65.5813 117.398H49.8247V117.611C49.8247 118.676 48.973 119.74 47.6955 119.74C46.6308 119.74 45.5662 118.676 45.5662 117.611V117.398H15.1178C13.8402 117.398 12.9885 116.334 12.9885 115.269C12.9885 114.204 14.0531 113.14 15.1178 113.14Z" fill="url(#paint23_linear_806_1000)"/>
</g>
</g>
<defs>
<linearGradient id="paint0_linear_806_1000" x1="89.627" y1="-0.000328768" x2="89.627" y2="61.5544" gradientUnits="userSpaceOnUse">
<stop stop-color="#FFD2B8"/>
<stop offset="1" stop-color="#C44900"/>
</linearGradient>
<linearGradient id="paint1_linear_806_1000" x1="89.6309" y1="-2.60928e-08" x2="89.6309" y2="61.5546" gradientUnits="userSpaceOnUse">
<stop stop-color="#2EFB46"/>
<stop offset="1" stop-color="#49AA3B"/>
</linearGradient>
<linearGradient id="paint2_linear_806_1000" x1="89.6309" y1="0" x2="89.6309" y2="61.5546" gradientUnits="userSpaceOnUse">
<stop stop-color="#F0CF3B"/>
<stop offset="1" stop-color="#E6B800"/>
</linearGradient>
<linearGradient id="paint3_linear_806_1000" x1="129.47" y1="14.0859" x2="129.47" y2="19.7995" gradientUnits="userSpaceOnUse">
<stop stop-color="#FFD2B8"/>
<stop offset="1" stop-color="#C44900"/>
</linearGradient>
<linearGradient id="paint4_linear_806_1000" x1="129.47" y1="14.0859" x2="129.47" y2="19.7995" gradientUnits="userSpaceOnUse">
<stop stop-color="#2EFB46"/>
<stop offset="1" stop-color="#49AA3B"/>
</linearGradient>
<linearGradient id="paint5_linear_806_1000" x1="129.47" y1="14.0859" x2="129.47" y2="19.7995" gradientUnits="userSpaceOnUse">
<stop stop-color="#F0CF3B"/>
<stop offset="1" stop-color="#E6B800"/>
</linearGradient>
<linearGradient id="paint6_linear_806_1000" x1="132.129" y1="26.9023" x2="132.129" y2="31.1609" gradientUnits="userSpaceOnUse">
<stop stop-color="#FFD2B8"/>
<stop offset="1" stop-color="#C44900"/>
</linearGradient>
<linearGradient id="paint7_linear_806_1000" x1="132.129" y1="26.9023" x2="132.129" y2="31.1609" gradientUnits="userSpaceOnUse">
<stop stop-color="#2EFB46"/>
<stop offset="1" stop-color="#49AA3B"/>
</linearGradient>
<linearGradient id="paint8_linear_806_1000" x1="132.129" y1="26.9023" x2="132.129" y2="31.1609" gradientUnits="userSpaceOnUse">
<stop stop-color="#F0CF3B"/>
<stop offset="1" stop-color="#E6B800"/>
</linearGradient>
<linearGradient id="paint9_linear_806_1000" x1="129.831" y1="38.2383" x2="129.831" y2="43.8878" gradientUnits="userSpaceOnUse">
<stop stop-color="#FFD2B8"/>
<stop offset="1" stop-color="#C44900"/>
</linearGradient>
<linearGradient id="paint10_linear_806_1000" x1="129.831" y1="38.2383" x2="129.831" y2="43.8878" gradientUnits="userSpaceOnUse">
<stop stop-color="#2EFB46"/>
<stop offset="1" stop-color="#49AA3B"/>
</linearGradient>
<linearGradient id="paint11_linear_806_1000" x1="129.831" y1="38.2383" x2="129.831" y2="43.8878" gradientUnits="userSpaceOnUse">
<stop stop-color="#F0CF3B"/>
<stop offset="1" stop-color="#E6B800"/>
</linearGradient>
<linearGradient id="paint12_linear_806_1000" x1="51.9578" y1="53.0975" x2="51.9578" y2="84.6106" gradientUnits="userSpaceOnUse">
<stop stop-color="#FFD2B8"/>
<stop offset="1" stop-color="#C44900"/>
</linearGradient>
<linearGradient id="paint13_linear_806_1000" x1="51.9596" y1="53.0977" x2="51.9596" y2="84.6107" gradientUnits="userSpaceOnUse">
<stop stop-color="#2EFB46"/>
<stop offset="1" stop-color="#49AA3B"/>
</linearGradient>
<linearGradient id="paint14_linear_806_1000" x1="51.9596" y1="53.0977" x2="51.9596" y2="84.6107" gradientUnits="userSpaceOnUse">
<stop stop-color="#F0CF3B"/>
<stop offset="1" stop-color="#E6B800"/>
</linearGradient>
<linearGradient id="paint15_linear_806_1000" x1="53.5579" y1="63.746" x2="53.5579" y2="73.9666" gradientUnits="userSpaceOnUse">
<stop stop-color="#FFD2B8"/>
<stop offset="1" stop-color="#C44900"/>
</linearGradient>
<linearGradient id="paint16_linear_806_1000" x1="53.5583" y1="63.7461" x2="53.5583" y2="73.9666" gradientUnits="userSpaceOnUse">
<stop stop-color="#2EFB46"/>
<stop offset="1" stop-color="#49AA3B"/>
</linearGradient>
<linearGradient id="paint17_linear_806_1000" x1="53.5583" y1="63.7461" x2="53.5583" y2="73.9666" gradientUnits="userSpaceOnUse">
<stop stop-color="#F0CF3B"/>
<stop offset="1" stop-color="#E6B800"/>
</linearGradient>
<linearGradient id="paint18_linear_806_1000" x1="51.8413" y1="35.2106" x2="51.8413" y2="102.283" gradientUnits="userSpaceOnUse">
<stop stop-color="#FFD2B8"/>
<stop offset="1" stop-color="#C44900"/>
</linearGradient>
<linearGradient id="paint19_linear_806_1000" x1="51.8472" y1="35.2109" x2="51.8472" y2="102.283" gradientUnits="userSpaceOnUse">
<stop stop-color="#2EFB46"/>
<stop offset="1" stop-color="#49AA3B"/>
</linearGradient>
<linearGradient id="paint20_linear_806_1000" x1="51.8471" y1="35.2109" x2="51.8471" y2="102.283" gradientUnits="userSpaceOnUse">
<stop stop-color="#F0CF3B"/>
<stop offset="1" stop-color="#E6B800"/>
</linearGradient>
<linearGradient id="paint21_linear_806_1000" x1="51.8413" y1="106.539" x2="51.8413" y2="123.999" gradientUnits="userSpaceOnUse">
<stop stop-color="#FFD2B8"/>
<stop offset="1" stop-color="#C44900"/>
</linearGradient>
<linearGradient id="paint22_linear_806_1000" x1="51.8472" y1="106.539" x2="51.8472" y2="123.999" gradientUnits="userSpaceOnUse">
<stop stop-color="#2EFB46"/>
<stop offset="1" stop-color="#49AA3B"/>
</linearGradient>
<linearGradient id="paint23_linear_806_1000" x1="51.8471" y1="106.539" x2="51.8471" y2="123.999" gradientUnits="userSpaceOnUse">
<stop stop-color="#F0CF3B"/>
<stop offset="1" stop-color="#E6B800"/>
</linearGradient>
<clipPath id="clip0_806_1000">
<rect width="137" height="124" fill="white"/>
</clipPath>
</defs>
</svg>
