<svg width="95" height="151" viewBox="0 0 95 151" fill="none" xmlns="http://www.w3.org/2000/svg">
<g clip-path="url(#clip0_806_1021)">
<mask id="mask0_806_1021" style="mask-type:luminance" maskUnits="userSpaceOnUse" x="0" y="0" width="95" height="151">
<path d="M95 0H0V151H95V0Z" fill="white"/>
</mask>
<g mask="url(#mask0_806_1021)">
<path d="M94.582 44.1542V53.9829C94.582 56.5359 92.5012 58.602 89.9629 58.602H4.61906C2.08074 58.602 0 56.5362 0 53.9829V44.1542C0 41.6159 2.08074 39.5352 4.61906 39.5352H89.9629C92.5012 39.5352 94.582 41.6159 94.582 44.1542Z" fill="url(#paint0_linear_806_1021)"/>
<path d="M94.582 44.1542V53.9829C94.582 56.5359 92.5012 58.602 89.9629 58.602H4.61906C2.08074 58.602 0 56.5362 0 53.9829V44.1542C0 41.6159 2.08074 39.5352 4.61906 39.5352H89.9629C92.5012 39.5352 94.582 41.6159 94.582 44.1542Z" fill="url(#paint1_linear_806_1021)"/>
<path d="M94.582 44.1542V53.9829C94.582 56.5359 92.5012 58.602 89.9629 58.602H4.61906C2.08074 58.602 0 56.5362 0 53.9829V44.1542C0 41.6159 2.08074 39.5352 4.61906 39.5352H89.9629C92.5012 39.5352 94.582 41.6159 94.582 44.1542Z" fill="url(#paint2_linear_806_1021)"/>
<path d="M13.7812 7.48227C13.7812 5.41617 14.6226 3.54194 15.98 2.18416C17.3378 0.841334 19.2121 0 21.2782 0C25.4104 0 28.7605 3.35006 28.7605 7.48227C28.7605 9.47455 27.9929 11.3634 26.5763 12.7804C25.1596 14.197 23.2854 14.9792 21.2931 14.9792C17.1463 14.9792 13.7812 11.6145 13.7812 7.48227Z" fill="url(#paint3_linear_806_1021)"/>
<path d="M13.7812 7.48227C13.7812 5.41617 14.6226 3.54194 15.98 2.18416C17.3378 0.841334 19.2121 0 21.2782 0C25.4104 0 28.7605 3.35006 28.7605 7.48227C28.7605 9.47455 27.9929 11.3634 26.5763 12.7804C25.1596 14.197 23.2854 14.9792 21.2931 14.9792C17.1463 14.9792 13.7812 11.6145 13.7812 7.48227Z" fill="url(#paint4_linear_806_1021)"/>
<path d="M13.7812 7.48227C13.7812 5.41617 14.6226 3.54194 15.98 2.18416C17.3378 0.841334 19.2121 0 21.2782 0C25.4104 0 28.7605 3.35006 28.7605 7.48227C28.7605 9.47455 27.9929 11.3634 26.5763 12.7804C25.1596 14.197 23.2854 14.9792 21.2931 14.9792C17.1463 14.9792 13.7812 11.6145 13.7812 7.48227Z" fill="url(#paint5_linear_806_1021)"/>
<path d="M32.9057 28.7353C32.9057 29.3255 32.5515 29.8716 32.0055 30.093C28.4339 31.5689 24.8627 32.3214 21.2766 32.3214C17.6904 32.3214 14.1042 31.5835 10.5477 30.1077C10.0016 29.8716 9.63281 29.3402 9.63281 28.7353C9.63281 22.3304 14.8568 17.1211 21.2766 17.1211C21.2912 17.1211 21.2912 17.1211 21.2912 17.1211C27.696 17.1211 32.9057 22.3307 32.9057 28.7353Z" fill="url(#paint6_linear_806_1021)"/>
<path d="M32.9057 28.7353C32.9057 29.3255 32.5515 29.8716 32.0055 30.093C28.4339 31.5689 24.8627 32.3214 21.2766 32.3214C17.6904 32.3214 14.1042 31.5835 10.5477 30.1077C10.0016 29.8716 9.63281 29.3402 9.63281 28.7353C9.63281 22.3304 14.8568 17.1211 21.2766 17.1211C21.2912 17.1211 21.2912 17.1211 21.2912 17.1211C27.696 17.1211 32.9057 22.3307 32.9057 28.7353Z" fill="url(#paint7_linear_806_1021)"/>
<path d="M32.9057 28.7353C32.9057 29.3255 32.5515 29.8716 32.0055 30.093C28.4339 31.5689 24.8627 32.3214 21.2766 32.3214C17.6904 32.3214 14.1042 31.5835 10.5477 30.1077C10.0016 29.8716 9.63281 29.3402 9.63281 28.7353C9.63281 22.3304 14.8568 17.1211 21.2766 17.1211C21.2912 17.1211 21.2912 17.1211 21.2912 17.1211C27.696 17.1211 32.9057 22.3307 32.9057 28.7353Z" fill="url(#paint8_linear_806_1021)"/>
<path d="M65.8359 7.48227C65.8359 5.41617 66.6773 3.54194 68.0347 2.18416C69.3925 0.841334 71.2814 0 73.3478 0C77.4654 0 80.8298 3.35006 80.8298 7.48227C80.8298 9.47455 80.0476 11.3634 78.631 12.7804C77.214 14.197 75.3401 14.9792 73.3478 14.9792C69.201 14.9792 65.8359 11.6145 65.8359 7.48227Z" fill="url(#paint9_linear_806_1021)"/>
<path d="M65.8359 7.48227C65.8359 5.41617 66.6773 3.54194 68.0347 2.18416C69.3925 0.841334 71.2814 0 73.3478 0C77.4654 0 80.8298 3.35006 80.8298 7.48227C80.8298 9.47455 80.0476 11.3634 78.631 12.7804C77.214 14.197 75.3401 14.9792 73.3478 14.9792C69.201 14.9792 65.8359 11.6145 65.8359 7.48227Z" fill="url(#paint10_linear_806_1021)"/>
<path d="M65.8359 7.48227C65.8359 5.41617 66.6773 3.54194 68.0347 2.18416C69.3925 0.841334 71.2814 0 73.3478 0C77.4654 0 80.8298 3.35006 80.8298 7.48227C80.8298 9.47455 80.0476 11.3634 78.631 12.7804C77.214 14.197 75.3401 14.9792 73.3478 14.9792C69.201 14.9792 65.8359 11.6145 65.8359 7.48227Z" fill="url(#paint11_linear_806_1021)"/>
<path d="M55.5274 20.5151C57.7262 22.7139 58.9366 25.6359 58.9366 28.7349C58.9366 29.3252 58.5825 29.8712 58.0215 30.0927C54.4649 31.5686 50.879 32.3065 47.2929 32.3065C43.7067 32.3065 40.1355 31.5835 36.5789 30.1077C36.0182 29.8716 35.6641 29.3402 35.6641 28.7353C35.6641 22.3304 40.8883 17.1211 47.3078 17.1211C50.4065 17.1208 53.3282 18.3309 55.5274 20.5151Z" fill="url(#paint12_linear_806_1021)"/>
<path d="M55.5016 20.463C57.7143 22.6478 58.9431 25.5621 58.9628 28.661C58.9665 29.2513 58.6159 29.7995 58.0563 30.0246C54.5091 31.523 50.9279 32.2836 47.3419 32.3063C43.7558 32.329 40.1801 31.6286 36.6142 30.1754C36.052 29.9428 35.6946 29.4137 35.6907 28.8088C35.6502 22.404 40.8413 17.1617 47.2607 17.1211C50.3593 17.1012 53.2886 18.2927 55.5016 20.463Z" fill="url(#paint13_linear_806_1021)"/>
<path d="M55.5016 20.463C57.7143 22.6478 58.9431 25.5621 58.9628 28.661C58.9665 29.2513 58.6159 29.7995 58.0563 30.0246C54.5091 31.523 50.9279 32.2836 47.3419 32.3063C43.7558 32.329 40.1801 31.6286 36.6142 30.1754C36.052 29.9428 35.6946 29.4137 35.6907 28.8088C35.6502 22.404 40.8413 17.1617 47.2607 17.1211C50.3593 17.1012 53.2886 18.2927 55.5016 20.463Z" fill="url(#paint14_linear_806_1021)"/>
<path d="M39.8125 7.48227C39.8125 5.41617 40.6535 3.54194 42.0113 2.18416C43.3688 0.841334 45.243 0 47.3094 0C51.4267 0 54.7914 3.35006 54.7914 7.48227C54.7914 11.6145 51.4413 14.9792 47.3094 14.9792C43.1769 14.9792 39.8125 11.6145 39.8125 7.48227Z" fill="url(#paint15_linear_806_1021)"/>
<path d="M39.8125 7.48227C39.8125 5.41617 40.6535 3.54194 42.0113 2.18416C43.3688 0.841334 45.243 0 47.3094 0C51.4267 0 54.7914 3.35006 54.7914 7.48227C54.7914 11.6145 51.4413 14.9792 47.3094 14.9792C43.1769 14.9792 39.8125 11.6145 39.8125 7.48227Z" fill="url(#paint16_linear_806_1021)"/>
<path d="M39.8125 7.48227C39.8125 5.41617 40.6535 3.54194 42.0113 2.18416C43.3688 0.841334 45.243 0 47.3094 0C51.4267 0 54.7914 3.35006 54.7914 7.48227C54.7914 11.6145 51.4413 14.9792 47.3094 14.9792C43.1769 14.9792 39.8125 11.6145 39.8125 7.48227Z" fill="url(#paint17_linear_806_1021)"/>
<path d="M84.9682 28.7349C84.9682 29.3252 84.5994 29.8712 84.0533 30.0927C80.4968 31.5686 76.9106 32.3065 73.3244 32.3065C69.7383 32.3065 66.1521 31.5835 62.5955 30.1077C62.0495 29.8716 61.6953 29.3402 61.6953 28.7353C61.6953 22.3304 66.9193 17.1211 73.3391 17.1211C76.4381 17.1211 79.3455 18.3312 81.5443 20.5154C83.7434 22.7139 84.9682 25.6359 84.9682 28.7349Z" fill="url(#paint18_linear_806_1021)"/>
<path d="M84.9682 28.7349C84.9682 29.3252 84.5994 29.8712 84.0533 30.0927C80.4968 31.5686 76.9106 32.3065 73.3244 32.3065C69.7383 32.3065 66.1521 31.5835 62.5955 30.1077C62.0495 29.8716 61.6953 29.3402 61.6953 28.7353C61.6953 22.3304 66.9193 17.1211 73.3391 17.1211C76.4381 17.1211 79.3455 18.3312 81.5443 20.5154C83.7434 22.7139 84.9682 25.6359 84.9682 28.7349Z" fill="url(#paint19_linear_806_1021)"/>
<path d="M84.9682 28.7349C84.9682 29.3252 84.5994 29.8712 84.0533 30.0927C80.4968 31.5686 76.9106 32.3065 73.3244 32.3065C69.7383 32.3065 66.1521 31.5835 62.5955 30.1077C62.0495 29.8716 61.6953 29.3402 61.6953 28.7353C61.6953 22.3304 66.9193 17.1211 73.3391 17.1211C76.4381 17.1211 79.3455 18.3312 81.5443 20.5154C83.7434 22.7139 84.9682 25.6359 84.9682 28.7349Z" fill="url(#paint20_linear_806_1021)"/>
<path d="M59.3632 138.456C59.3632 145.111 53.9471 150.527 47.3061 150.527C40.6505 150.527 35.2344 145.111 35.2344 138.456C35.2344 131.8 40.6505 126.398 47.3061 126.398C53.9474 126.398 59.3632 131.8 59.3632 138.456Z" fill="url(#paint21_linear_806_1021)"/>
<path d="M59.3632 138.456C59.3632 145.111 53.9471 150.527 47.3061 150.527C40.6505 150.527 35.2344 145.111 35.2344 138.456C35.2344 131.8 40.6505 126.398 47.3061 126.398C53.9474 126.398 59.3632 131.8 59.3632 138.456Z" fill="url(#paint22_linear_806_1021)"/>
<path d="M59.3632 138.456C59.3632 145.111 53.9471 150.527 47.3061 150.527C40.6505 150.527 35.2344 145.111 35.2344 138.456C35.2344 131.8 40.6505 126.398 47.3061 126.398C53.9474 126.398 59.3632 131.8 59.3632 138.456Z" fill="url(#paint23_linear_806_1021)"/>
<path d="M83.9907 61.5547L61.072 92.8263V114.018C61.072 114.653 60.6736 115.214 60.0834 115.405L35.4527 123.758C35.3051 123.818 35.1428 123.847 34.9805 123.847C34.6706 123.847 34.3753 123.744 34.1245 123.566C33.7261 123.286 33.5046 122.843 33.5046 122.371V92.8263L10.5859 61.5547H83.9907Z" fill="url(#paint24_linear_806_1021)"/>
<path d="M83.9907 61.5547L61.072 92.8263V114.018C61.072 114.653 60.6736 115.214 60.0834 115.405L35.4527 123.758C35.3051 123.818 35.1428 123.847 34.9805 123.847C34.6706 123.847 34.3753 123.744 34.1245 123.566C33.7261 123.286 33.5046 122.843 33.5046 122.371V92.8263L10.5859 61.5547H83.9907Z" fill="url(#paint25_linear_806_1021)"/>
<path d="M83.9907 61.5547L61.072 92.8263V114.018C61.072 114.653 60.6736 115.214 60.0834 115.405L35.4527 123.758C35.3051 123.818 35.1428 123.847 34.9805 123.847C34.6706 123.847 34.3753 123.744 34.1245 123.566C33.7261 123.286 33.5046 122.843 33.5046 122.371V92.8263L10.5859 61.5547H83.9907Z" fill="url(#paint26_linear_806_1021)"/>
</g>
</g>
<defs>
<linearGradient id="paint0_linear_806_1021" x1="47.2908" y1="39.5352" x2="47.2908" y2="58.602" gradientUnits="userSpaceOnUse">
<stop stop-color="#FFD2B8"/>
<stop offset="1" stop-color="#C44900"/>
</linearGradient>
<linearGradient id="paint1_linear_806_1021" x1="47.2907" y1="39.5352" x2="47.2907" y2="58.602" gradientUnits="userSpaceOnUse">
<stop stop-color="#2EFB46"/>
<stop offset="1" stop-color="#49AA3B"/>
</linearGradient>
<linearGradient id="paint2_linear_806_1021" x1="47.2907" y1="39.5352" x2="47.2907" y2="58.602" gradientUnits="userSpaceOnUse">
<stop stop-color="#F0CF3B"/>
<stop offset="1" stop-color="#E6B800"/>
</linearGradient>
<linearGradient id="paint3_linear_806_1021" x1="21.2708" y1="0" x2="21.2708" y2="14.9792" gradientUnits="userSpaceOnUse">
<stop stop-color="#FFD2B8"/>
<stop offset="1" stop-color="#C44900"/>
</linearGradient>
<linearGradient id="paint4_linear_806_1021" x1="21.2708" y1="0" x2="21.2708" y2="14.9792" gradientUnits="userSpaceOnUse">
<stop stop-color="#2EFB46"/>
<stop offset="1" stop-color="#49AA3B"/>
</linearGradient>
<linearGradient id="paint5_linear_806_1021" x1="21.2708" y1="0" x2="21.2708" y2="14.9792" gradientUnits="userSpaceOnUse">
<stop stop-color="#F0CF3B"/>
<stop offset="1" stop-color="#E6B800"/>
</linearGradient>
<linearGradient id="paint6_linear_806_1021" x1="21.2692" y1="17.1211" x2="21.2692" y2="32.3214" gradientUnits="userSpaceOnUse">
<stop stop-color="#FFD2B8"/>
<stop offset="1" stop-color="#C44900"/>
</linearGradient>
<linearGradient id="paint7_linear_806_1021" x1="21.2692" y1="17.1211" x2="21.2692" y2="32.3214" gradientUnits="userSpaceOnUse">
<stop stop-color="#2EFB46"/>
<stop offset="1" stop-color="#49AA3B"/>
</linearGradient>
<linearGradient id="paint8_linear_806_1021" x1="21.2692" y1="17.1211" x2="21.2692" y2="32.3214" gradientUnits="userSpaceOnUse">
<stop stop-color="#F0CF3B"/>
<stop offset="1" stop-color="#E6B800"/>
</linearGradient>
<linearGradient id="paint9_linear_806_1021" x1="73.3329" y1="0" x2="73.3329" y2="14.9792" gradientUnits="userSpaceOnUse">
<stop stop-color="#FFD2B8"/>
<stop offset="1" stop-color="#C44900"/>
</linearGradient>
<linearGradient id="paint10_linear_806_1021" x1="73.3328" y1="0" x2="73.3328" y2="14.9792" gradientUnits="userSpaceOnUse">
<stop stop-color="#2EFB46"/>
<stop offset="1" stop-color="#49AA3B"/>
</linearGradient>
<linearGradient id="paint11_linear_806_1021" x1="73.3328" y1="0" x2="73.3328" y2="14.9792" gradientUnits="userSpaceOnUse">
<stop stop-color="#F0CF3B"/>
<stop offset="1" stop-color="#E6B800"/>
</linearGradient>
<linearGradient id="paint12_linear_806_1021" x1="47.3003" y1="17.1211" x2="47.3003" y2="32.3065" gradientUnits="userSpaceOnUse">
<stop stop-color="#FFD2B8"/>
<stop offset="1" stop-color="#C44900"/>
</linearGradient>
<linearGradient id="paint13_linear_806_1021" x1="47.2531" y1="17.1211" x2="47.3492" y2="32.3062" gradientUnits="userSpaceOnUse">
<stop stop-color="#2EFB46"/>
<stop offset="1" stop-color="#49AA3B"/>
</linearGradient>
<linearGradient id="paint14_linear_806_1021" x1="47.2531" y1="17.1211" x2="47.3493" y2="32.3062" gradientUnits="userSpaceOnUse">
<stop stop-color="#F0CF3B"/>
<stop offset="1" stop-color="#E6B800"/>
</linearGradient>
<linearGradient id="paint15_linear_806_1021" x1="47.3019" y1="0" x2="47.3019" y2="14.9792" gradientUnits="userSpaceOnUse">
<stop stop-color="#FFD2B8"/>
<stop offset="1" stop-color="#C44900"/>
</linearGradient>
<linearGradient id="paint16_linear_806_1021" x1="47.3019" y1="0" x2="47.3019" y2="14.9792" gradientUnits="userSpaceOnUse">
<stop stop-color="#2EFB46"/>
<stop offset="1" stop-color="#49AA3B"/>
</linearGradient>
<linearGradient id="paint17_linear_806_1021" x1="47.3019" y1="0" x2="47.3019" y2="14.9792" gradientUnits="userSpaceOnUse">
<stop stop-color="#F0CF3B"/>
<stop offset="1" stop-color="#E6B800"/>
</linearGradient>
<linearGradient id="paint18_linear_806_1021" x1="73.3317" y1="17.1211" x2="73.3317" y2="32.3065" gradientUnits="userSpaceOnUse">
<stop stop-color="#FFD2B8"/>
<stop offset="1" stop-color="#C44900"/>
</linearGradient>
<linearGradient id="paint19_linear_806_1021" x1="73.3317" y1="17.1211" x2="73.3317" y2="32.3065" gradientUnits="userSpaceOnUse">
<stop stop-color="#2EFB46"/>
<stop offset="1" stop-color="#49AA3B"/>
</linearGradient>
<linearGradient id="paint20_linear_806_1021" x1="73.3317" y1="17.1211" x2="73.3317" y2="32.3065" gradientUnits="userSpaceOnUse">
<stop stop-color="#F0CF3B"/>
<stop offset="1" stop-color="#E6B800"/>
</linearGradient>
<linearGradient id="paint21_linear_806_1021" x1="47.2987" y1="126.398" x2="47.2987" y2="150.527" gradientUnits="userSpaceOnUse">
<stop stop-color="#FFD2B8"/>
<stop offset="1" stop-color="#C44900"/>
</linearGradient>
<linearGradient id="paint22_linear_806_1021" x1="47.2987" y1="126.398" x2="47.2987" y2="150.527" gradientUnits="userSpaceOnUse">
<stop stop-color="#2EFB46"/>
<stop offset="1" stop-color="#49AA3B"/>
</linearGradient>
<linearGradient id="paint23_linear_806_1021" x1="47.2987" y1="126.398" x2="47.2987" y2="150.527" gradientUnits="userSpaceOnUse">
<stop stop-color="#F0CF3B"/>
<stop offset="1" stop-color="#E6B800"/>
</linearGradient>
<linearGradient id="paint24_linear_806_1021" x1="47.2882" y1="61.5547" x2="47.2882" y2="123.847" gradientUnits="userSpaceOnUse">
<stop stop-color="#FFD2B8"/>
<stop offset="1" stop-color="#C44900"/>
</linearGradient>
<linearGradient id="paint25_linear_806_1021" x1="47.2881" y1="61.5547" x2="47.2881" y2="123.847" gradientUnits="userSpaceOnUse">
<stop stop-color="#2EFB46"/>
<stop offset="1" stop-color="#49AA3B"/>
</linearGradient>
<linearGradient id="paint26_linear_806_1021" x1="47.2881" y1="61.5547" x2="47.2881" y2="123.847" gradientUnits="userSpaceOnUse">
<stop stop-color="#F0CF3B"/>
<stop offset="1" stop-color="#E6B800"/>
</linearGradient>
<clipPath id="clip0_806_1021">
<rect width="95" height="151" fill="white"/>
</clipPath>
</defs>
</svg>
